# xmcd
#
# Track frame offsets: 
#        150
#        13725
#        20624
#        37756
#        55465
#        67713
#        82380
#        98423
#        108140
#        129942
#        144407
#        161440
#        173881
#        188246
#        200565
#        214192
#        237668
#        254637
#        269941
#        286563
#        306490
#
# Disc length: 4286 seconds
#
# Revision: 0
# Processed by: cddbd v1.5.2PL0 Copyright (c) Steve Scherf et al.
# Submitted via: ExactAudioCopyFreeDBPlugin 1.0
#
DISCID=3110bc15
DTITLE=Various Artist - Rockin' At The Barn Vol 4
DYEAR=2004
DGENRE=Country
TTITLE0=Ove Wulff - Go Away
TTITLE1=Stringbeans - True Love
TTITLE2=Blue Mama - Little White Moon
TTITLE3=Lisen Elwin - Early Morning Sun
TTITLE4=Pilgrim - I Love You Honey
TTITLE5=Deadnecks - She's Better Than...
TTITLE6=John Cate and The Van Gogh Brothers - One Last Chance
TTITLE7=Terry Anderson - Check Please
TTITLE8=Brian Jay Cline - Last Stop On Your Train
TTITLE9=Wrinkle Neck Mules - Liza
TTITLE10=Bucksworth - Star
TTITLE11=Racketeers - I Don't Want To Talk About It
TTITLE12=Rod Picott - You Can't Talk To Me Like That
TTITLE13=Lisa and Her Kin - Hog Tied Over You
TTITLE14=Pilgrim - If I Could Only Win Your Love
TTITLE15=Trash Mavericks - Pretty Ones
TTITLE16=Bob Cheevers - Tall Enough to Reach Your Love
TTITLE17=Waylong and The Bunch - Messin' With The Blues
TTITLE18=Neil Smith - Rebel Liners
TTITLE19=K Wilder - Come Out And Dance
TTITLE20=Joe Fournier - The Way It Is
EXTD=
EXTT0=
EXTT1=
EXTT2=
EXTT3=
EXTT4=
EXTT5=
EXTT6=
EXTT7=
EXTT8=
EXTT9=
EXTT10=
EXTT11=
EXTT12=
EXTT13=
EXTT14=
EXTT15=
EXTT16=
EXTT17=
EXTT18=
EXTT19=
EXTT20=
PLAYORDER=
